<svg width="24" height="22" viewBox="0 0 24 22" fill="none" xmlns="http://www.w3.org/2000/svg">
<path d="M12 0C11.337 0 10.7011 0.263392 10.2322 0.732233C9.76339 1.20107 9.5 1.83696 9.5 2.5C9.50025 2.98622 9.64228 3.46182 9.90871 3.86856C10.1751 4.27529 10.5544 4.59551 11 4.79V6H7C6.46957 6 5.96086 6.21071 5.58579 6.58579C5.21071 6.96086 5 7.46957 5 8V8.71C4.55437 8.90449 4.17512 9.22471 3.9087 9.63144C3.64228 10.0382 3.50025 10.5138 3.5 11C3.50025 11.4862 3.64228 11.9618 3.9087 12.3686C4.17512 12.7753 4.55437 13.0955 5 13.29V14H4C3.46957 14 2.96086 14.2107 2.58579 14.5858C2.21071 14.9609 2 15.4696 2 16V17.21C1.55437 17.4045 1.17512 17.7247 0.908703 18.1314C0.642282 18.5382 0.500251 19.0138 0.5 19.5C0.5 20.163 0.763392 20.7989 1.23223 21.2678C1.46438 21.4999 1.73998 21.6841 2.04329 21.8097C2.34661 21.9353 2.6717 22 3 22C3.66304 22 4.29893 21.7366 4.76777 21.2678C5.23661 20.7989 5.5 20.163 5.5 19.5C5.49975 19.0138 5.35772 18.5382 5.0913 18.1314C4.82488 17.7247 4.44563 17.4045 4 17.21V16H8V17.21C7.55437 17.4045 7.17512 17.7247 6.9087 18.1314C6.64228 18.5382 6.50025 19.0138 6.5 19.5C6.5 20.163 6.76339 20.7989 7.23223 21.2678C7.70108 21.7366 8.33696 22 9 22C9.32831 22 9.6534 21.9353 9.95671 21.8097C10.26 21.6841 10.5356 21.4999 10.7678 21.2678C10.9999 21.0356 11.1841 20.76 11.3097 20.4567C11.4353 20.1534 11.5 19.8283 11.5 19.5C11.4998 19.0138 11.3577 18.5382 11.0913 18.1314C10.8249 17.7247 10.4456 17.4045 10 17.21V16C10 15.4696 9.78929 14.9609 9.41422 14.5858C9.03914 14.2107 8.53043 14 8 14H7V13.29C7.44563 13.0955 7.82488 12.7753 8.0913 12.3686C8.35772 11.9618 8.49975 11.4862 8.5 11C8.49975 10.5138 8.35772 10.0382 8.0913 9.63144C7.82488 9.22471 7.44563 8.90449 7 8.71V8H17V8.71C16.5544 8.90449 16.1751 9.22471 15.9087 9.63144C15.6423 10.0382 15.5003 10.5138 15.5 11C15.5003 11.4862 15.6423 11.9618 15.9087 12.3686C16.1751 12.7753 16.5544 13.0955 17 13.29V14H16C15.4696 14 14.9609 14.2107 14.5858 14.5858C14.2107 14.9609 14 15.4696 14 16V17.21C13.5544 17.4045 13.1751 17.7247 12.9087 18.1314C12.6423 18.5382 12.5003 19.0138 12.5 19.5C12.5 20.163 12.7634 20.7989 13.2322 21.2678C13.7011 21.7366 14.337 22 15 22C15.663 22 16.2989 21.7366 16.7678 21.2678C17.2366 20.7989 17.5 20.163 17.5 19.5C17.4998 19.0138 17.3577 18.5382 17.0913 18.1314C16.8249 17.7247 16.4456 17.4045 16 17.21V16H20V17.21C19.5544 17.4045 19.1751 17.7247 18.9087 18.1314C18.6423 18.5382 18.5003 19.0138 18.5 19.5C18.5 20.163 18.7634 20.7989 19.2322 21.2678C19.7011 21.7366 20.337 22 21 22C21.663 22 22.2989 21.7366 22.7678 21.2678C23.2366 20.7989 23.5 20.163 23.5 19.5C23.4998 19.0138 23.3577 18.5382 23.0913 18.1314C22.8249 17.7247 22.4456 17.4045 22 17.21V16C22 15.4696 21.7893 14.9609 21.4142 14.5858C21.0391 14.2107 20.5304 14 20 14H19V13.29C19.4456 13.0955 19.8249 12.7753 20.0913 12.3686C20.3577 11.9618 20.4998 11.4862 20.5 11C20.4998 10.5138 20.3577 10.0382 20.0913 9.63144C19.8249 9.22471 19.4456 8.90449 19 8.71V8C19 7.46957 18.7893 6.96086 18.4142 6.58579C18.0391 6.21071 17.5304 6 17 6H13V4.79C13.4456 4.59551 13.8249 4.27529 14.0913 3.86856C14.3577 3.46182 14.4998 2.98622 14.5 2.5C14.5 1.83696 14.2366 1.20107 13.7678 0.732233C13.2989 0.263392 12.663 0 12 0ZM12 1.5C12.2652 1.5 12.5196 1.60536 12.7071 1.79289C12.8946 1.98043 13 2.23478 13 2.5C13 2.76522 12.8946 3.01957 12.7071 3.20711C12.5196 3.39464 12.2652 3.5 12 3.5C11.7348 3.5 11.4804 3.39464 11.2929 3.20711C11.1054 3.01957 11 2.76522 11 2.5C11 2.23478 11.1054 1.98043 11.2929 1.79289C11.4804 1.60536 11.7348 1.5 12 1.5ZM6 10C6.26522 10 6.51957 10.1054 6.70711 10.2929C6.89464 10.4804 7 10.7348 7 11C7 11.2652 6.89464 11.5196 6.70711 11.7071C6.51957 11.8946 6.26522 12 6 12C5.73478 12 5.48043 11.8946 5.29289 11.7071C5.10536 11.5196 5 11.2652 5 11C5 10.7348 5.10536 10.4804 5.29289 10.2929C5.48043 10.1054 5.73478 10 6 10ZM18 10C18.2652 10 18.5196 10.1054 18.7071 10.2929C18.8946 10.4804 19 10.7348 19 11C19 11.2652 18.8946 11.5196 18.7071 11.7071C18.5196 11.8946 18.2652 12 18 12C17.7348 12 17.4804 11.8946 17.2929 11.7071C17.1054 11.5196 17 11.2652 17 11C17 10.7348 17.1054 10.4804 17.2929 10.2929C17.4804 10.1054 17.7348 10 18 10ZM3 18.5C3.26522 18.5 3.51957 18.6054 3.70711 18.7929C3.89464 18.9804 4 19.2348 4 19.5C4 19.7652 3.89464 20.0196 3.70711 20.2071C3.51957 20.3946 3.26522 20.5 3 20.5C2.73478 20.5 2.48043 20.3946 2.29289 20.2071C2.10536 20.0196 2 19.7652 2 19.5C2 19.2348 2.10536 18.9804 2.29289 18.7929C2.48043 18.6054 2.73478 18.5 3 18.5ZM9 18.5C9.26522 18.5 9.51957 18.6054 9.70711 18.7929C9.89465 18.9804 10 19.2348 10 19.5C10 19.7652 9.89465 20.0196 9.70711 20.2071C9.51957 20.3946 9.26522 20.5 9 20.5C8.73479 20.5 8.48043 20.3946 8.2929 20.2071C8.10536 20.0196 8 19.7652 8 19.5C8 19.2348 8.10536 18.9804 8.2929 18.7929C8.48043 18.6054 8.73479 18.5 9 18.5ZM15 18.5C15.2652 18.5 15.5196 18.6054 15.7071 18.7929C15.8946 18.9804 16 19.2348 16 19.5C16 19.7652 15.8946 20.0196 15.7071 20.2071C15.5196 20.3946 15.2652 20.5 15 20.5C14.7348 20.5 14.4804 20.3946 14.2929 20.2071C14.1054 20.0196 14 19.7652 14 19.5C14 19.2348 14.1054 18.9804 14.2929 18.7929C14.4804 18.6054 14.7348 18.5 15 18.5ZM21 18.5C21.2652 18.5 21.5196 18.6054 21.7071 18.7929C21.8946 18.9804 22 19.2348 22 19.5C22 19.7652 21.8946 20.0196 21.7071 20.2071C21.5196 20.3946 21.2652 20.5 21 20.5C20.7348 20.5 20.4804 20.3946 20.2929 20.2071C20.1054 20.0196 20 19.7652 20 19.5C20 19.2348 20.1054 18.9804 20.2929 18.7929C20.4804 18.6054 20.7348 18.5 21 18.5Z" fill="white"/>
</svg>
